<svg data-v-0dd9719b="" version="1.0" xmlns="http://www.w3.org/2000/svg" xmlns:xlink="http://www.w3.org/1999/xlink" width="100%" height="100%" viewBox="0 0 340.000000 250.000000" preserveAspectRatio="xMidYMid meet" color-interpolation-filters="sRGB" style="margin: auto;"> <rect data-v-0dd9719b="" x="0" y="0" width="100%" height="100%" fill="#ffffff" fill-opacity="1" class="background"></rect> <rect data-v-0dd9719b="" x="0" y="0" width="100%" height="100%" fill="url(#watermark)" fill-opacity="1" class="watermarklayer"></rect> <g data-v-0dd9719b="" fill="#43a756" class="icon-text-wrapper icon-svg-group iconsvg" transform="translate(48.30000305214039,95.71199035644531)"><g class="iconsvg-imagesvg" transform="translate(0,0)"><g><rect fill="#43a756" fill-opacity="0" stroke-width="2" x="0" y="0" width="60" height="58.57601702609561" class="image-rect"></rect> <svg filter="url(#colors6773614332)" x="0" y="0" width="60" height="58.57601702609561" filtersec="colorsf341246666" class="image-svg-svg primary" style="overflow: visible;"><svg xmlns="http://www.w3.org/2000/svg" viewBox="0.004869944415986538 0.0028769117780029774 73.0302505493164 71.29695892333984"><title>资源 3</title><g id="图层_2" data-name="图层 2"><g id="Layer_1" data-name="Layer 1"><path d="M26.16,25.58h0l6.47-6.47a23.89,23.89,0,0,1,3.6-3,24.63,24.63,0,0,1,13.25-4A24.27,24.27,0,0,1,66.21,19a24.13,24.13,0,0,1,6.38,21.43,22.82,22.82,0,0,1-6.3,12L52.53,66.15l0,0a25.85,25.85,0,0,1-10.24,4.7,24,24,0,0,1-18.39-3.89,23.55,23.55,0,0,0,3.14.21,24.66,24.66,0,0,0,13.25-4,23.89,23.89,0,0,0,3.6-3L59,45.09a13.1,13.1,0,0,0,3.84-9.41A13.61,13.61,0,0,0,59,26.23,13.89,13.89,0,0,0,53.44,23a13.46,13.46,0,0,0-9.18.47,14.44,14.44,0,0,1,2.91,22l0,0-6.76,6.76a23.89,23.89,0,0,1-3.6,3,24.63,24.63,0,0,1-13.25,4A24.23,24.23,0,0,1,6.83,52.3,24.11,24.11,0,0,1,.45,30.88a22.81,22.81,0,0,1,6.3-12L20.51,5.14h0A25.67,25.67,0,0,1,30.77.46,23.92,23.92,0,0,1,49.16,4.34,23.55,23.55,0,0,0,46,4.13a24.58,24.58,0,0,0-13.25,4,23.81,23.81,0,0,0-3.6,2.95L14.07,26.19a13.11,13.11,0,0,0-3.84,9.42,13.61,13.61,0,0,0,3.85,9.44,13.77,13.77,0,0,0,5.52,3.26,13.4,13.4,0,0,0,9.18-.47,14.43,14.43,0,0,1-2.62-22.26Zm5.66,8.93v0h0v0h0v.06h0v0h0v.06h0v.06h0v0h0V35h0v.11h0v.08h0v0h0v.11h0v0h0v.08h0v.12a4.84,4.84,0,0,0,4.84,4.84h1.14a4.87,4.87,0,0,0,3.57-3.58h0v0h0v-.06h0v-.06h0v0h0v0h0v0h0v-.06h0v0h0v-.07h0v-.08h0V36h0v-.08h0v-.11h0v-.13a4.84,4.84,0,0,0-4.84-4.84H35.38a4.83,4.83,0,0,0-3.56,3.57Z" fill="#f33a67"></path></g></g></svg></svg> <defs><filter id="colors6773614332"><feColorMatrix type="matrix" values="0 0 0 0 0.26171875  0 0 0 0 0.65234375  0 0 0 0 0.3359375  0 0 0 1 0" class="icon-fecolormatrix"></feColorMatrix></filter> <filter id="colorsf341246666"><feColorMatrix type="matrix" values="0 0 0 0 0.99609375  0 0 0 0 0.99609375  0 0 0 0 0.99609375  0 0 0 1 0" class="icon-fecolormatrix"></feColorMatrix></filter> <filter id="colorsb6155094170"><feColorMatrix type="matrix" values="0 0 0 0 0  0 0 0 0 0  0 0 0 0 0  0 0 0 1 0" class="icon-fecolormatrix"></feColorMatrix></filter></defs></g></g> <g transform="translate(67,1.2217578887939453)"><g data-gra="path-name" fill-rule="" class="tp-name iconsvg-namesvg" transform="translate(0,0)"><g transform="scale(1)"><g><path d="M42.36-32.56L9.14-32.56 9.14-22.28Q9.14-5.1 4.57 3.38L4.57 3.38Q3.08 2.24 1.71 1.71L1.71 1.71Q5.8-5.8 5.89-21.09L5.89-21.09Q5.89-21.67 5.89-22.28L5.89-22.28 5.89-35.51 42.36-35.51 42.36-32.56ZM31.2-6.02L31.2-6.02 19.51-6.02Q21.8-3.91 25.36-2.55L25.36-2.55Q28.78-3.87 31.2-6.02ZM33.88-14.68L17.4-14.68 17.4-12.44 33.88-12.44 33.88-14.68ZM33.88-18.94L17.4-18.94 17.4-16.66 33.88-16.66 33.88-18.94ZM33.88-23.07L17.4-23.07 17.4-20.87 33.88-20.87 33.88-23.07ZM33.49-8.22L34.1-8.39 36.04-7.29Q33.57-3.78 28.87-1.36L28.87-1.36Q34.67 0.22 43.07 0.66L43.07 0.66Q42.28 1.41 41.22 3.43L41.22 3.43Q31.9 2.72 25.27 0.22L25.27 0.22Q19.07 2.55 9.89 3.43L9.89 3.43Q9.32 1.85 8.53 0.83L8.53 0.83Q16.44 0.22 21.88-1.36L21.88-1.36Q18.94-2.99 17.09-4.83L17.09-4.83Q14.33-3.3 11.12-2.07L11.12-2.07Q10.28-3.47 9.23-4.22L9.23-4.22Q16.44-6.64 20.79-10.37L20.79-10.37 14.33-10.37 14.33-25.09 23.47-25.09Q23.73-25.84 24.21-27.64L24.21-27.64 10.68-27.64 10.68-30.1 41.22-30.1 41.22-27.64 27.69-27.64Q27.64-27.51 27.58-27.38 27.51-27.25 27.47-27.11 27.42-26.98 27.36-26.83 27.29-26.67 27.25-26.59 27.2-26.5 27.11-26.32 27.03-26.15 27-26.06 26.98-25.97 26.89-25.8 26.81-25.62 26.78-25.58 26.76-25.53 26.63-25.31L26.63-25.31 26.54-25.09 37.13-25.09 37.13-10.37 24.7-10.37Q23.33-9.05 22.32-8.22L22.32-8.22 33.49-8.22ZM52.65 3.47L49.31 3.47 49.31-28.61 52.65-28.61 52.65 3.47ZM50.84-36.08L50.84-36.08 53.39-37.71Q57.61-33.18 59.85-29.62L59.85-29.62 57.08-27.69Q55.06-31.29 50.84-36.08ZM61.17-35.99L85.87-35.99 85.87-1.01Q85.87 1.76 84.33 2.59L84.33 2.59Q84.07 2.72 83.76 2.86L83.76 2.86Q81.91 3.47 75.15 3.38L75.15 3.38Q74.75 1.58 73.92 0.13L73.92 0.13Q79.37 0.35 81.34 0.18L81.34 0.18Q82.44-0.04 82.53-1.01L82.53-1.01 82.53-32.78 61.17-32.78 61.17-35.99ZM128.06-10.5L128.06-10.5Q128.8-6.42 130.21-6.37L130.21-6.37Q131.13-6.46 131.22-12.92L131.22-12.92Q132.41-11.47 133.33-10.72L133.33-10.72Q132.98-5.1 131.79-3.82L131.79-3.82Q131.09-3.12 129.95-3.12L129.95-3.12Q126.56-3.12 125.24-9.23L125.24-9.23Q124.15-14.5 123.97-29.97L123.97-29.97 123.97-32.48 115.66-32.48 115.66-21.97Q116.67-22.19 118.17-21.97L118.17-21.97 122.65-21.97 122.65-18.9 115.66-18.9 115.66-4.66 112.46-4.66 112.46-18.9 103.84-18.9 103.84-21.97 112.46-21.97 112.46-32.48 104.94-32.48 104.94-35.55 127.18-35.55Q127.13-16 128.06-10.5ZM112.72-0.53L112.72-0.53Q123-0.26 132.45-0.79L132.45-0.79Q132.89-0.79 133.24-0.83L133.24-0.83Q132.41 0.57 132.1 2.46L132.1 2.46Q121.73 2.81 112.76 2.59L112.76 2.59Q104.37 2.2 100.33-2.29L100.33-2.29Q100.11-2.5 99.93-2.72L99.93-2.72Q97.6-0.48 93.43 3.03L93.43 3.03 91.67-0.26Q94.79-2.42 98.13-5.41L98.13-5.41 98.13-13.75 92.24-13.75 92.24-16.88 101.38-16.88 101.38-5.63Q104.5-0.88 112.72-0.53ZM93.21-25.53L93.21-25.53 92.42-25.93 94.61-28.08Q99.14-26.02 102.04-23.38L102.04-23.38Q102.35-23.12 102.52-22.94L102.52-22.94 100.2-20.57Q97.82-23.07 93.21-25.53ZM94.92-34.58L94.92-34.58Q94.53-34.85 94.17-35.02L94.17-35.02 96.37-37.09Q101.29-34.45 103.62-31.95L103.62-31.95Q103.71-31.82 103.8-31.73L103.8-31.73 101.47-29.44Q99.45-31.9 94.92-34.58ZM164.75-21.45L161.98-21.45 161.98-33.71 154.91-33.71 154.91-36.12 164.75-36.12 164.75-21.45ZM159.48-33.09L159.48-33.09 161.59-32.43Q159.43-29.79 155.83-27.77L155.83-27.77Q154.91-28.7 154.16-29.22L154.16-29.22Q157.72-31.07 159.48-33.09ZM159.79-27.64L159.79-27.64 161.94-26.98Q159.74-23.95 155.74-21.4L155.74-21.4Q154.91-22.32 154.07-23.03L154.07-23.03Q157.94-25.14 159.79-27.64ZM151-34.28L151-34.28 153.76-33.57Q151.26-25.66 150.12-23.16L150.12-23.16 147.92-23.86Q149.72-28.21 151-34.28ZM142.29-23.91L142.29-23.91 139.75-23.29Q139.44-27.91 137.55-33.31L137.55-33.31Q137.5-33.44 137.46-33.53L137.46-33.53 139.88-34.1Q141.86-28.83 142.29-23.99L142.29-23.99Q142.29-23.95 142.29-23.91ZM154.25-18.72L149.81-18.72 149.81-5.76Q150.29-5.93 154.25-7.65L154.25-7.65 154.86-4.97Q153.28-4.22 150.07-2.72L150.07-2.72Q147.48-1.54 146.29-0.97L146.29-0.97 145.28-3.96 146.91-4.57 146.91-18.72 143.66-18.72Q143.44-7.03 141.64-1.76L141.64-1.76Q140.54 1.36 138.82 3.38L138.82 3.38Q138.12 2.11 136.8 1.19L136.8 1.19Q136.71 1.14 136.67 1.1L136.67 1.1Q139.88-2.68 140.54-11.87L140.54-11.87Q140.76-14.63 140.8-18.72L140.8-18.72 136.93-18.72 136.93-21.84 143.92-21.84 143.92-36.83 146.82-36.83 146.82-21.84 154.25-21.84 154.25-18.72ZM165.37-4.13L159.61-4.13 159.61-0.79 165.37-0.79 165.37-4.13ZM159.61-12.13L165.37-12.13 165.37-15.25 159.61-15.25 159.61-12.13ZM159.61-6.5L165.37-6.5 165.37-9.76 159.61-9.76 159.61-6.5ZM168.27-0.79L178.11-0.79 178.11 1.67 159.61 1.67 159.61 3.38 156.62 3.38 156.62-12.39Q155.52-11.03 154.12-9.67L154.12-9.67Q153.15-10.94 152.01-11.87L152.01-11.87Q156.27-15.64 158.77-21.67L158.77-21.67Q158.86-21.88 158.95-22.06L158.95-22.06 161.72-21.27Q161.15-19.82 160.05-17.71L160.05-17.71 165.72-17.71Q167.12-20.74 167.52-21.88L167.52-21.88Q166.6-22.9 165.89-23.29L165.89-23.29Q169.94-25.44 171.74-27.64L171.74-27.64 173.85-26.98 173.85-33.71 166.51-33.71 166.51-36.12 176.57-36.12 176.57-21.45 173.85-21.45 173.85-26.94Q171.65-24.17 167.78-21.88L167.78-21.88 170.73-21.14Q170.33-20.39 169.45-18.9L169.45-18.9Q169.01-18.11 168.79-17.71L168.79-17.71 177.1-17.71 177.1-15.25 168.27-15.25 168.27-12.13 176.35-12.13 176.35-9.76 168.27-9.76 168.27-6.5 176.35-6.5 176.35-4.13 168.27-4.13 168.27-0.79ZM171.3-33.09L171.3-33.09 173.5-32.43Q171.21-29.79 167.52-27.77L167.52-27.77Q166.46-28.83 165.81-29.22L165.81-29.22Q169.41-31.07 171.3-33.09Z" transform="translate(-1.7100000381469727, 37.709999084472656)"></path></g> <!----> <!----> <!----> <!----> <!----> <!----> <!----></g></g> <g data-gra="path-slogan" fill-rule="" class="tp-slogan iconsvg-slogansvg" fill="#383c93" transform="translate(38.744998931884766,47.18000030517578)"><!----> <!----> <g transform="scale(1, 1)"><g transform="scale(1)"><path d="M7.64-8.58L4.73-4.41L7.78 0L6.33 0L3.98-3.52L1.64 0L0.23 0L3.33-4.41L0.42-8.58L1.88-8.58L4.03-5.30L6.23-8.58L7.64-8.58ZM9.05-8.58L10.22-8.58L10.22 0L9.05 0L9.05-8.58ZM17.86 0L17.02-2.48L13.55-2.48L12.66 0L11.48 0L14.72-8.58L16.03-8.58L19.13 0L17.86 0ZM15.28-7.31L13.92-3.52L16.59-3.52L15.33-7.31L15.28-7.31ZM28.41-8.58L28.41 0L27.28 0L27.28-5.06Q27.28-5.77 27.28-7.22L27.28-7.22L24.84 0L23.67 0L21.28-7.22L21.23-7.22Q21.23-6.70 21.28-5.67L21.28-5.67Q21.28-5.16 21.28-5.06L21.28-5.06L21.28 0L20.11 0L20.11-8.58L21.80-8.58L24.28-1.31L26.72-8.58L28.41-8.58ZM31.41-1.03L36.56-1.03L36.56 0L30.23 0L30.23-8.58L36.47-8.58L36.47-7.59L31.41-7.59L31.41-4.92L36.09-4.92L36.09-3.89L31.41-3.89L31.41-1.03ZM39.47-8.58L43.78-1.64L43.78-8.58L44.91-8.58L44.91 0L43.59 0L39.23-6.94L39.19-6.94L39.19 0L38.06 0L38.06-8.58L39.47-8.58ZM56.77-8.58L53.86-4.41L56.91 0L55.45 0L53.11-3.52L50.77 0L49.36 0L52.45-4.41L49.55-8.58L51-8.58L53.16-5.30L55.36-8.58L56.77-8.58ZM63.66-3.19L63.66-8.58L64.83-8.58L64.83-3.05Q64.69 0.05 61.31 0.14L61.31 0.14Q58.17 0.05 58.03-2.86L58.03-2.86L58.03-8.58L59.20-8.58L59.20-3.19Q59.25-0.84 61.36-0.80L61.36-0.80Q63.66-0.84 63.66-3.19L63.66-3.19ZM68.02-8.58L72.33-1.64L72.33-8.58L73.45-8.58L73.45 0L72.14 0L67.78-6.94L67.73-6.94L67.73 0L66.61 0L66.61-8.58L68.02-8.58ZM82.17-8.58L78.94-3.47L78.94 0L77.77 0L77.77-3.47L74.53-8.58L75.89-8.58L78.33-4.45L80.81-8.58L82.17-8.58ZM88.88 0L88.03-2.48L84.56-2.48L83.67 0L82.50 0L85.73-8.58L87.05-8.58L90.14 0L88.88 0ZM86.30-7.31L84.94-3.52L87.61-3.52L86.34-7.31L86.30-7.31ZM97.97-4.27L97.97-4.27Q97.78-7.64 94.97-7.83L94.97-7.83Q92.11-7.69 91.97-4.27L91.97-4.27Q92.11-0.94 94.97-0.80L94.97-0.80Q97.78-0.98 97.97-4.27ZM99.14-4.27L99.14-4.27Q98.86 0 94.97 0.14L94.97 0.14Q91.03 0 90.75-4.27L90.75-4.27Q90.98-8.72 94.97-8.81L94.97-8.81Q98.86-8.67 99.14-4.27Z" transform="translate(-0.234375, 8.8125)"></path></g></g></g></g></g><defs v-gra="od"></defs></svg>